<svg width="28" height="28" viewBox="0 0 28 28" fill="none" xmlns="http://www.w3.org/2000/svg">
<path fill-rule="evenodd" clip-rule="evenodd" d="M6.80669 21.1933C6.4422 20.8288 6.4422 20.2379 6.80669 19.8734L19.2134 7.46667L11.2 7.46667C10.6845 7.46667 10.2667 7.0488 10.2667 6.53333C10.2667 6.01787 10.6845 5.6 11.2 5.6L21.4667 5.6C21.7142 5.6 21.9516 5.69833 22.1266 5.87337C22.3017 6.0484 22.4 6.2858 22.4 6.53333L22.4 16.8C22.4 17.3155 21.9821 17.7333 21.4667 17.7333C20.9512 17.7333 20.5333 17.3155 20.5333 16.8L20.5333 8.7866L8.12663 21.1933C7.76214 21.5578 7.17118 21.5578 6.80669 21.1933Z" fill="white"/>
</svg>
