<svg width="60" height="60" viewBox="0 0 60 60" fill="none" xmlns="http://www.w3.org/2000/svg">
<g clip-path="url(#clip0_9_104)">
<path fill-rule="evenodd" clip-rule="evenodd" d="M0 0H60V60H0V0Z" fill="white"/>
<path fill-rule="evenodd" clip-rule="evenodd" d="M15.7762 50.1404L20.3678 47.3616C21.2536 48.9322 22.0595 50.2611 23.9923 50.2611C25.8451 50.2611 27.0132 49.5363 27.0132 46.7172V27.5458H32.6516V46.797C32.6516 52.637 29.2284 55.2951 24.234 55.2951C19.7235 55.2951 17.1052 52.9591 15.7761 50.1399" fill="#5A5A5A"/>
<path fill-rule="evenodd" clip-rule="evenodd" d="M35.7144 49.5362L40.3054 46.878C41.514 48.8517 43.0847 50.3015 45.8636 50.3015C48.1999 50.3015 49.6897 49.1334 49.6897 47.5224C49.6897 45.5891 48.1593 44.9044 45.5816 43.7771L44.1724 43.1725C40.1043 41.441 37.4057 39.2661 37.4057 34.6746C37.4057 30.4456 40.6277 27.2234 45.6624 27.2234C49.2469 27.2234 51.8245 28.4721 53.677 31.7345L49.2869 34.5536C48.3203 32.8219 47.2734 32.1373 45.6625 32.1373C44.0111 32.1373 42.9639 33.1845 42.9639 34.5536C42.9639 36.2452 44.0111 36.9301 46.4274 37.9773L47.8369 38.5814C52.6298 40.6356 55.3284 42.7297 55.3284 47.4418C55.3284 52.5169 51.3411 55.2956 45.9845 55.2956C40.7487 55.2956 37.3655 52.7987 35.7145 49.5362" fill="#5A5A5A"/>
</g>
<defs>
<clipPath id="clip0_9_104">
<rect width="60" height="60" rx="4" fill="white"/>
</clipPath>
</defs>
</svg>
