<svg width="60" height="60" viewBox="0 0 60 60" fill="none" xmlns="http://www.w3.org/2000/svg">
<g clip-path="url(#clip0_9_254)">
<g clip-path="url(#clip1_9_254)">
<path fill-rule="evenodd" clip-rule="evenodd" d="M55.8649 28.5308C55.8108 28.5416 55.7568 28.6606 55.7568 28.7254C55.746 29.158 55.7352 30.3044 55.7352 31.083C55.7352 31.1046 55.7675 31.1478 55.8 31.1478C55.9622 31.1586 56.3516 31.1695 56.6868 31.1695C57.1518 31.1695 57.4221 31.1046 57.5736 31.0397C57.9628 30.8451 58.1467 30.4233 58.1467 29.9582C58.1467 28.9093 57.4113 28.5091 56.3191 28.5091C56.2434 28.4984 56.0272 28.4984 55.8649 28.5308ZM58.655 33.3648C58.655 32.2942 57.8655 31.6993 56.438 31.6993C56.3732 31.6993 55.919 31.6885 55.8108 31.7102C55.7783 31.721 55.7351 31.7426 55.7351 31.7751C55.7351 32.5429 55.7243 33.7649 55.7568 34.2407C55.7783 34.4462 55.9298 34.7382 56.1137 34.8247C56.3082 34.9329 56.7517 34.9544 57.0544 34.9544C57.9088 34.9544 58.655 34.4787 58.655 33.3648ZM53.6588 27.936C53.7669 27.936 54.0914 27.9684 54.9241 27.9684C55.7135 27.9684 56.3407 27.9469 57.1086 27.9469C58.0493 27.9469 59.3471 28.2821 59.3471 29.6879C59.3471 30.3801 58.8604 30.9316 58.2224 31.2019C58.19 31.2128 58.19 31.2343 58.2224 31.2451C59.1308 31.4723 59.9311 32.0347 59.9311 33.0944C59.9311 34.1326 59.2822 34.7922 58.3413 35.2032C57.7682 35.4519 57.0544 35.5384 56.3299 35.5384C55.7783 35.5384 54.2969 35.4736 53.475 35.4952C53.3885 35.4627 53.5507 35.0734 53.6263 35.0085C53.821 34.9977 53.9724 34.9869 54.1779 34.922C54.4699 34.8464 54.5023 34.7598 54.5456 34.3165C54.5672 33.938 54.5672 32.5969 54.5672 31.6453C54.5672 30.3367 54.578 29.45 54.5672 29.0175C54.5564 28.6822 54.4374 28.5741 54.1995 28.5091C54.0157 28.4767 53.7129 28.4334 53.4641 28.4011C53.41 28.3469 53.5939 27.9792 53.6588 27.936ZM47.4189 34.6625C47.6786 34.8679 48.1868 34.9544 48.641 34.9544C49.225 34.9544 49.8089 34.8464 50.3713 34.338C50.9445 33.819 51.3445 33.0187 51.3445 31.7426C51.3445 30.5206 50.8795 29.5257 49.9279 28.9418C49.3872 28.6065 48.695 28.4659 47.8948 28.4659C47.6569 28.4659 47.4298 28.4767 47.2892 28.5416C47.2568 28.5633 47.1811 28.6606 47.1811 28.7146C47.1594 28.9309 47.1594 30.5963 47.1594 31.5696C47.1594 32.5754 47.1594 33.9812 47.1811 34.1434C47.1811 34.3056 47.2568 34.5544 47.4189 34.6625ZM44.9641 27.936C45.1696 27.936 45.959 27.9684 46.3375 27.9684C47.0188 27.9684 47.5054 27.936 48.7923 27.936C49.8737 27.936 50.7821 28.228 51.431 28.7795C52.2204 29.4608 52.6314 30.4017 52.6314 31.548C52.6314 33.1809 51.8852 34.1218 51.139 34.6625C50.3929 35.214 49.4196 35.5384 48.0354 35.5384C47.3 35.5384 46.0348 35.5168 44.9857 35.506H44.9749C44.9209 35.4087 45.0614 35.0302 45.1479 35.0194C45.4291 34.9869 45.5048 34.9761 45.6454 34.922C45.8725 34.8355 45.9158 34.7165 45.9483 34.3165C45.9806 33.5703 45.9698 32.6727 45.9698 31.6561C45.9698 30.9316 45.9806 29.5149 45.959 29.0607C45.9266 28.6822 45.7644 28.5849 45.4399 28.5199C45.2777 28.4876 45.0614 28.4443 44.7587 28.4119C44.7154 28.3361 44.91 28.0009 44.9641 27.936Z" fill="#E0E0E0"/>
<path fill-rule="evenodd" clip-rule="evenodd" d="M31.879 35.0842C31.6086 35.0518 31.4139 35.0086 31.176 34.9004C31.1436 34.8787 31.0895 34.7707 31.0895 34.7274C31.0678 34.3489 31.0678 33.2674 31.0678 32.5429C31.0678 31.9589 30.9706 31.4506 30.7218 31.0938C30.4298 30.6828 30.008 30.4449 29.4673 30.4449C28.9915 30.4449 28.3534 30.7694 27.8236 31.2236C27.8127 31.2343 27.7262 31.3101 27.737 31.1911C27.737 31.0721 27.7587 30.8343 27.7695 30.6721C27.7803 30.5206 27.6938 30.4449 27.6938 30.4449C27.3477 30.6179 26.3744 30.8451 26.0176 30.8775C25.7581 30.9316 25.6932 31.1803 25.9636 31.2668H25.9744C26.2663 31.3533 26.461 31.4506 26.6123 31.548C26.7205 31.6345 26.7097 31.7535 26.7097 31.8508C26.7205 32.6619 26.7205 33.9055 26.6881 34.5868C26.6773 34.8572 26.6016 34.9544 26.4069 34.9977L26.4285 34.9869C26.2771 35.0194 26.1581 35.0518 25.9743 35.0734C25.9094 35.1383 25.9094 35.4844 25.9743 35.5601C26.0933 35.5601 26.7205 35.5276 27.2396 35.5276C27.9534 35.5276 28.3211 35.5601 28.5049 35.5601C28.5806 35.4736 28.6022 35.1491 28.5589 35.0734C28.3534 35.0626 28.2021 35.041 28.0615 34.9977C27.8669 34.9544 27.8127 34.8572 27.8019 34.63C27.7803 34.0568 27.7803 32.8457 27.7803 32.0238C27.7803 31.7967 27.8452 31.6885 27.9101 31.6237C28.1588 31.4074 28.5589 31.256 28.9158 31.256C29.2618 31.256 29.489 31.3641 29.662 31.5048C29.8999 31.6993 29.9756 31.9805 30.008 32.186C30.0621 32.651 30.0405 33.5703 30.0405 34.3705C30.0405 34.8031 30.008 34.9112 29.8458 34.9652C29.7702 34.9977 29.5755 35.041 29.3483 35.0626C29.2727 35.1383 29.2943 35.4736 29.3483 35.5493C29.662 35.5493 30.0297 35.5168 30.5704 35.5168C31.2408 35.5168 31.6735 35.5493 31.8465 35.5493C31.9005 35.4844 31.9222 35.1707 31.8789 35.0842H31.879ZM34.8745 30.9532C34.3013 30.9532 33.9445 31.3966 33.9445 32.0887C33.9445 32.7916 34.258 33.6027 35.1449 33.6027C35.2962 33.6027 35.5774 33.5378 35.7071 33.3864C35.9126 33.1918 36.0533 32.8024 36.0533 32.3915C36.0533 31.4939 35.6098 30.9532 34.8745 30.9532ZM34.7987 35.7331C34.5825 35.7331 34.431 35.798 34.3338 35.8521C33.8795 36.144 33.6741 36.4252 33.6741 36.7605C33.6741 37.074 33.793 37.3228 34.0526 37.5391C34.3662 37.8094 34.7987 37.9392 35.3503 37.9392C36.4533 37.9392 36.94 37.3444 36.94 36.7605C36.94 36.3495 36.7345 36.0791 36.3128 35.9278C36.01 35.798 35.4584 35.7331 34.7987 35.7331ZM34.8745 38.5448C34.2148 38.5448 33.739 38.4042 33.3281 38.0906C32.9279 37.7878 32.7549 37.3336 32.7549 37.02C32.7549 36.9335 32.7765 36.6955 32.9712 36.4793C33.0901 36.3495 33.3496 36.1008 33.9661 35.6791C33.9877 35.6682 33.9985 35.6574 33.9985 35.6358C33.9985 35.6141 33.9768 35.5925 33.9553 35.5817C33.447 35.3871 33.2956 35.0734 33.2523 34.9004V34.8787C33.2416 34.8139 33.2199 34.749 33.3172 34.6841C33.3929 34.63 33.5011 34.5652 33.62 34.4895C33.8038 34.3813 33.9985 34.2623 34.1175 34.165C34.1391 34.1434 34.1391 34.1218 34.1391 34.1002C34.1391 34.0785 34.1175 34.0568 34.0958 34.0461C33.3389 33.7973 32.9604 33.235 32.9604 32.3915C32.9604 31.84 33.2091 31.3425 33.6525 31.0289C33.9553 30.7909 34.7122 30.499 35.2097 30.499H35.2422C35.7504 30.5098 36.0316 30.6179 36.4317 30.7586C36.648 30.8342 36.8535 30.8666 37.1347 30.8666C37.5564 30.8666 37.7403 30.7369 37.8916 30.5855C37.9024 30.6071 37.9241 30.6612 37.9349 30.8018C37.9457 30.9424 37.9024 31.1478 37.7943 31.2993C37.7078 31.4182 37.5132 31.5048 37.3185 31.5048H37.2644C37.0697 31.4831 36.9832 31.4615 36.9832 31.4615L36.94 31.4831C36.9292 31.5048 36.94 31.5263 36.9508 31.5588L36.9617 31.5805C36.9832 31.6778 37.0265 31.9697 37.0265 32.0455C37.0265 32.9322 36.6697 33.3215 36.2911 33.6135C35.9235 33.8838 35.5017 34.0568 35.0259 34.1002C35.0151 34.1002 34.9719 34.1002 34.8745 34.111C34.8204 34.111 34.7447 34.1218 34.7339 34.1218H34.7231C34.6365 34.1434 34.4203 34.2515 34.4203 34.4354C34.4203 34.5976 34.5177 34.7922 34.9826 34.8247C35.0799 34.8355 35.1772 34.8355 35.2854 34.8464C35.9018 34.8896 36.6697 34.9437 37.0265 35.0626C37.5239 35.2464 37.8376 35.6898 37.8376 36.2198C37.8376 37.02 37.2644 37.7662 36.3128 38.2311C35.8478 38.4366 35.3827 38.5448 34.8745 38.5448ZM41.0386 31.0073C40.8115 31.0073 40.606 31.0613 40.4546 31.1695C40.0329 31.429 39.8166 31.9481 39.8166 32.7051C39.8166 34.1218 40.5303 35.1167 41.5468 35.1167C41.8497 35.1167 42.0875 35.0302 42.293 34.8572C42.6066 34.5976 42.7689 34.0785 42.7689 33.3539C42.7689 31.9481 42.0659 31.0073 41.0386 31.0073ZM41.2333 35.6358C39.3948 35.6358 38.7351 34.284 38.7351 33.0187C38.7351 32.132 39.092 31.4506 39.8057 30.964C40.3141 30.6504 40.9196 30.4774 41.4603 30.4774C42.8661 30.4774 43.8503 31.4831 43.8503 32.9322C43.8503 33.9163 43.461 34.6949 42.7148 35.1707C42.3579 35.4086 41.7415 35.6358 41.2332 35.6358H41.2333ZM21.9623 31.0073C21.7351 31.0073 21.5297 31.0613 21.3783 31.1695C20.9565 31.429 20.7402 31.9481 20.7402 32.7051C20.7402 34.1218 21.4539 35.1167 22.4705 35.1167C22.7733 35.1167 23.0112 35.0302 23.2167 34.8572C23.5303 34.5976 23.6926 34.0785 23.6926 33.3539C23.6926 31.9481 23.0004 31.0073 21.9623 31.0073ZM22.1569 35.6358C20.3185 35.6358 19.6588 34.284 19.6588 33.0187C19.6588 32.132 20.0157 31.4506 20.7294 30.964C21.2377 30.6504 21.8433 30.4774 22.384 30.4774C23.7899 30.4774 24.774 31.4831 24.774 32.9322C24.774 33.9163 24.3846 34.6949 23.6384 35.1707C23.2924 35.4086 22.676 35.6358 22.1569 35.6358ZM9.79623 35.5276C9.77458 35.4952 9.75292 35.3979 9.76375 35.2789C9.76375 35.1924 9.7854 35.1383 9.79623 35.1167C10.0233 35.0842 10.1423 35.0518 10.272 35.0194C10.4883 34.9652 10.5748 34.8464 10.5856 34.576C10.6181 33.9271 10.6181 32.6942 10.6073 31.84V31.8183C10.6073 31.721 10.6073 31.602 10.4883 31.5155C10.3153 31.4074 10.1098 31.3101 9.83943 31.2343C9.7421 31.2019 9.67724 31.1478 9.68807 31.083C9.68807 31.0181 9.75292 30.9424 9.89356 30.9208C10.2504 30.8883 11.1804 30.6612 11.5481 30.499C11.5697 30.5206 11.6022 30.5855 11.6022 30.6721L11.5914 30.7909C11.5805 30.9099 11.5697 31.0506 11.5697 31.1911C11.5697 31.2343 11.613 31.2668 11.6562 31.2668C11.6779 31.2668 11.6995 31.256 11.7212 31.2451C12.4133 30.7044 13.0405 30.5098 13.3649 30.5098C13.8948 30.5098 14.3057 30.7586 14.6194 31.2776C14.641 31.3101 14.6626 31.3208 14.6951 31.3208C14.7167 31.3208 14.7491 31.3101 14.7599 31.2884C15.398 30.8018 16.036 30.5098 16.4577 30.5098C17.4635 30.5098 18.0583 31.256 18.0583 32.5212C18.0583 32.8781 18.0583 33.3431 18.0475 33.7649C18.0475 34.1434 18.0367 34.4895 18.0367 34.7382C18.0367 34.7922 18.1124 34.9652 18.2313 34.9977C18.3827 35.0734 18.5882 35.1059 18.8586 35.1491H18.8694C18.891 35.2248 18.8477 35.506 18.8045 35.5601C18.7396 35.5601 18.6422 35.5601 18.5342 35.5493C18.3287 35.5384 18.0367 35.5276 17.7123 35.5276C17.0418 35.5276 16.6957 35.5384 16.3604 35.5601C16.3389 35.4736 16.328 35.214 16.3604 35.1491C16.5551 35.1167 16.6524 35.0842 16.7714 35.0518C16.9877 34.9869 17.0418 34.8896 17.0526 34.6084C17.0526 34.403 17.0958 32.651 17.0309 32.2292C16.9661 31.7967 16.6416 31.2884 15.9279 31.2884C15.6575 31.2884 15.2358 31.3966 14.8248 31.7102C14.8032 31.7318 14.7816 31.7859 14.7816 31.8183V31.8292C14.8248 32.0562 14.8248 32.3158 14.8248 32.7159V33.4188C14.8248 33.9055 14.814 34.3597 14.8248 34.7057C14.8248 34.9437 14.9654 34.9977 15.0844 35.041C15.1493 35.0518 15.1925 35.0626 15.2466 35.0734C15.344 35.0951 15.4413 35.1167 15.5927 35.1491C15.6143 35.1924 15.6143 35.3329 15.5818 35.4519C15.571 35.5168 15.5493 35.5493 15.5386 35.5601C15.1709 35.5493 14.7924 35.5384 14.2409 35.5384C14.0787 35.5384 13.7975 35.5493 13.5595 35.5493C13.3649 35.5493 13.181 35.5601 13.073 35.5601C13.0621 35.5384 13.0405 35.4627 13.0405 35.3438C13.0405 35.2464 13.0621 35.1707 13.0838 35.1491C13.1378 35.1383 13.181 35.1275 13.2352 35.1275C13.3649 35.1059 13.473 35.0842 13.5812 35.0626C13.765 35.0085 13.8299 34.9112 13.8407 34.6733C13.8732 34.1326 13.9056 32.5862 13.8299 32.1968C13.7002 31.5696 13.3433 31.256 12.7701 31.256C12.4349 31.256 12.0131 31.4182 11.6671 31.6778C11.613 31.721 11.5697 31.8292 11.5697 31.9265V32.5645C11.5697 33.3431 11.5697 34.3165 11.5805 34.7382C11.5914 34.8679 11.6346 35.0194 11.8834 35.0734C11.9374 35.0842 12.0239 35.1059 12.1321 35.1167L12.3268 35.1491C12.3484 35.214 12.3376 35.4736 12.2943 35.5601C12.1861 35.5601 12.0564 35.5493 11.9049 35.5493C11.6779 35.5384 11.3859 35.5276 11.0615 35.5276C10.683 35.5276 10.4126 35.5384 10.1963 35.5493C10.0449 35.5276 9.92594 35.5276 9.79623 35.5276Z" fill="#E0E0E0"/>
<path fill-rule="evenodd" clip-rule="evenodd" d="M3.38977 36.0452C3.69351 36.7576 3.66443 37.9716 3.66443 37.9716L4.10781 38.1231C4.10781 38.1231 4.0213 36.9335 4.15111 36.3711C4.18745 36.1961 4.2752 36.0433 4.37958 35.9154C4.35753 35.9309 4.34578 35.9386 4.34578 35.9386C3.9137 35.7362 3.7859 34.7981 3.76512 33.9188C3.67892 35.0071 3.5557 35.8013 3.43739 36.0791C3.43739 36.0791 3.42074 36.0678 3.38977 36.0452Z" fill="#E0E0E0"/>
<path fill-rule="evenodd" clip-rule="evenodd" d="M3.66481 21.5389L3.66441 21.5124C3.66441 21.5124 3.90238 22.118 4.15108 22.464C4.37813 22.9507 6.44373 24.2159 7.31965 28.0766C8.22805 33.3864 4.34576 35.9386 4.34576 35.9386C3.91367 35.7362 3.78587 34.7981 3.76509 33.9188C3.67889 35.0071 3.55568 35.8013 3.43736 36.0791C3.43736 36.0791 -0.207061 33.5918 0.0092629 29.2121C0.214659 24.8323 2.78849 22.6803 3.28589 22.291C3.61038 21.9449 3.6212 21.8151 3.64285 21.4691C3.65047 21.4854 3.65778 21.5088 3.66481 21.5389V21.5389Z" fill="#E0E0E0"/>
</g>
</g>
<defs>
<clipPath id="clip0_9_254">
<rect width="60" height="17.1094" fill="white" transform="translate(0 21.4453)"/>
</clipPath>
<clipPath id="clip1_9_254">
<rect width="60" height="17.1094" fill="white" transform="translate(0 21.4453)"/>
</clipPath>
</defs>
</svg>
