<svg width="60" height="60" viewBox="0 0 60 60" fill="none" xmlns="http://www.w3.org/2000/svg">
<g clip-path="url(#clip0_9_203)">
<path fill-rule="evenodd" clip-rule="evenodd" d="M35.3353 0.0141735C34.903 0.0141735 34.4991 0.106301 34.1306 0.226776C34.9208 0.758283 35.3531 1.44924 35.5727 2.23941C35.5869 2.34572 35.6188 2.42367 35.633 2.53351C35.6472 2.64336 35.6684 2.71777 35.6684 2.81698C35.7322 4.18118 35.3141 4.35127 35.0164 5.15561C34.5664 6.19382 34.6904 7.30999 35.229 8.20292C35.2783 8.32246 35.3401 8.43647 35.4133 8.54308C34.8251 4.62411 38.0956 4.03236 38.698 2.8099C38.7441 1.7398 37.8618 1.02758 37.1637 0.531507C36.4976 0.127562 35.8881 0 35.3353 0V0.0141735ZM40.2606 0.900018C40.1968 1.25436 40.2465 1.16223 40.2252 1.35003L40.1898 1.75397L40.0835 2.12603C40.048 2.25004 40.0055 2.37406 39.9594 2.49808L39.7894 2.85242C39.7433 2.9162 39.7114 2.97644 39.6653 3.03667L39.5732 3.17841L39.3394 3.48668C39.2472 3.57881 39.1693 3.68866 39.0559 3.77015C38.9425 3.85165 38.8716 3.95441 38.7618 4.03236C38.4358 4.2804 38.0637 4.46465 37.7236 4.69852C37.6173 4.77647 37.511 4.84025 37.4153 4.93238C37.3104 5.00658 37.212 5.08956 37.1212 5.18042C37.0149 5.27254 36.9369 5.36467 36.8377 5.47452C36.7385 5.58436 36.6676 5.67649 36.6039 5.78279L36.3913 6.10878L36.2212 6.46312L36.0972 6.81746L35.9909 7.20723C35.9767 7.27101 35.9767 7.34896 35.9554 7.4092C35.9342 7.46944 35.9413 7.53322 35.92 7.59346L35.9058 7.98323C35.9058 8.07536 35.9058 8.16748 35.92 8.2667C35.92 8.39072 35.9342 8.51473 35.9661 8.65647C35.998 8.7982 36.0121 8.90451 36.044 9.02852L36.168 9.40058C36.2035 9.47853 36.246 9.55649 36.2743 9.61318L32.7097 8.23126L30.9132 7.77063L29.9352 7.53676C29.0025 7.35086 28.0612 7.21132 27.1147 7.11864C27.0793 7.11864 27.0686 7.10447 27.0368 7.10447L24.2623 6.96274L22.2319 7.04069C21.2859 7.10447 20.3398 7.22495 19.3972 7.38085L18.6992 7.50487L17.3031 7.81315L16.605 7.9974L15.9389 8.2915L15.4286 8.52536C15.3932 8.53954 15.3649 8.53954 15.3507 8.5608L14.9184 8.7734C14.8723 8.78757 14.8404 8.80883 14.8121 8.81946L14.3302 9.0675C14.2239 9.11357 14.1176 9.1738 14.0219 9.22341C13.9759 9.25884 13.9156 9.28365 13.8802 9.30136L13.4762 9.53523C13.3479 9.60612 13.2237 9.6842 13.1042 9.76909L12.7959 9.98169L12.4558 10.2297L12.1935 10.4423C12.1581 10.4565 12.1298 10.4884 12.1014 10.5061L11.8676 10.7081C11.8534 10.7435 11.8215 10.7541 11.8038 10.7719L11.5203 11.0341L11.212 11.3282L10.9498 11.6116C10.9144 11.6471 10.8719 11.6754 10.8435 11.7038C10.7603 11.8009 10.6728 11.8943 10.5813 11.9837C10.5671 12.0191 10.5352 12.0298 10.5175 12.0617L10.1632 12.4337L9.32696 13.2381C9.04349 13.4861 8.75293 13.72 8.45883 13.9184L7.53046 14.5066C7.22219 14.6767 6.89265 14.8326 6.55249 14.9672C6.22321 15.1073 5.88738 15.2315 5.54617 15.3393C4.89419 15.481 4.22804 15.7432 3.65401 15.7893C3.52999 15.7893 3.3918 15.8247 3.26424 15.8354L2.87447 15.9275L2.50241 16.0692C2.37555 16.1195 2.25137 16.1762 2.13036 16.2393C2.02406 16.3173 1.89649 16.381 1.79019 16.4519C1.68389 16.5228 1.57759 16.622 1.48192 16.7141C1.38625 16.8062 1.26932 16.8984 1.17365 16.9976L0.911435 17.3059C0.833481 17.4299 0.741353 17.5397 0.677572 17.6602C0.596476 17.7738 0.524216 17.8934 0.461426 18.0181L0.291344 18.422L0.149609 18.826L0.0716549 19.198C0.025591 19.3823 0.0255911 19.5701 0.00787417 19.6587C-0.00984271 19.7472 0.00787417 19.8642 0.00787417 19.974C0.00486403 20.0417 0.00961959 20.1094 0.0220477 20.176C0.0362212 20.2823 0.0574814 20.378 0.0858285 20.4701L0.19213 20.7536C0.238194 20.8599 0.298431 20.9555 0.362212 21.0477L0.564184 21.3311L0.826394 21.5792C0.917225 21.67 1.01561 21.753 1.12049 21.8272C1.49255 22.1532 1.58113 22.2595 2.06658 22.5075C2.14453 22.5536 2.22248 22.5855 2.31461 22.6315C2.36068 22.6776 2.36068 22.6918 2.37839 22.7237C2.39257 22.8477 2.42446 22.9717 2.45635 23.0957C2.48594 23.2234 2.52746 23.3479 2.58037 23.4678L2.70438 23.7513C2.71856 23.7867 2.73982 23.815 2.75045 23.8292L2.9347 24.1694L3.16857 24.4954L3.43078 24.7895C3.5229 24.8816 3.61503 24.9595 3.72488 25.0517L4.03315 25.2855C4.13945 25.3635 4.24575 25.4273 4.37331 25.4875C4.48795 25.5535 4.60761 25.6104 4.73119 25.6576C4.82332 25.7037 4.93317 25.7355 5.03947 25.7639C5.14577 25.7922 5.24144 25.8277 5.30168 25.8418C5.25561 26.6781 5.2379 27.4718 5.36546 27.7482C5.50719 28.0565 6.18752 27.1104 6.86785 26.0296C6.77572 27.0997 6.71194 28.3541 6.86785 28.7226C7.02376 29.0911 7.9663 27.9006 8.77419 26.5682C19.7587 24.0276 29.7864 31.6211 30.8388 42.3434C30.6368 40.6709 28.5781 39.739 27.632 39.9693C27.1714 41.1173 26.3777 42.5914 25.1056 43.502C25.2119 42.4745 25.1658 41.4256 24.9497 40.4016C24.6031 41.8281 23.9475 43.161 23.0292 44.3064C21.5587 44.4127 20.0882 43.704 19.3086 42.6339C19.2449 42.5878 19.2307 42.4922 19.1846 42.4319L19.0606 42.1059C19.0145 41.9996 18.9827 41.8933 18.9685 41.78C18.9543 41.6666 18.9543 41.5674 18.9543 41.4398V41.2059C18.9685 41.0996 19.0004 40.9933 19.0323 40.8799L19.1386 40.5539C19.2023 40.4476 19.2449 40.3413 19.3228 40.228C19.585 39.5193 19.585 38.8815 19.1102 38.5271C19.0181 38.4634 18.926 38.4208 18.8161 38.3712C18.7523 38.3571 18.6744 38.3252 18.6141 38.3074L18.4901 38.2614L18.1641 38.1834C18.0582 38.1528 17.9484 38.1373 17.8381 38.1374C17.7256 38.119 17.612 38.1084 17.498 38.1055C17.42 38.1055 17.3421 38.1196 17.2641 38.1196C17.1491 38.1187 17.0346 38.1342 16.924 38.1657L16.598 38.226L16.272 38.3323L15.9637 38.474L15.6696 38.6299C12.0554 40.9862 14.2168 46.4962 16.6759 48.0978C15.7476 48.2679 14.7979 48.4699 14.5393 48.6718C15.1771 49.1041 15.8716 49.4514 16.6015 49.7419L19.1102 50.4506C20.3965 50.7341 21.6969 50.8227 23.015 50.7447C26.3633 50.4995 29.5275 49.1187 31.9844 46.8307C34.4412 44.5427 36.0434 41.4845 36.5259 38.1622L36.618 38.5661L36.7598 39.4342L36.8236 39.8524L36.859 40.313L36.8944 40.8232V41.0713C36.8944 41.1492 36.9086 41.2414 36.9086 41.3193C36.9086 41.3973 36.8944 41.5036 36.8944 41.6028V41.8154C36.8944 41.9217 36.8803 42.0174 36.8803 42.1237C36.8803 42.1839 36.8803 42.2477 36.8661 42.3256L36.8519 42.6658C36.8377 42.7119 36.8377 42.7579 36.8377 42.8075L36.7917 43.1619C36.7917 43.2079 36.7917 43.254 36.7775 43.3036L36.7173 43.7536V43.7891L36.6251 44.2213L36.533 44.682L36.409 45.1639L36.285 45.6458L36.1291 46.1419L35.7889 47.0419L35.6046 47.4919L35.392 47.9242C35.3779 47.9702 35.3566 48.0021 35.346 48.0305C34.3078 50.1069 32.8195 51.8928 30.9593 53.2818C30.8352 53.3597 30.7112 53.4518 30.5872 53.544C30.5518 53.5794 30.5093 53.59 30.4809 53.6219L30.1407 53.8558L30.1868 53.9479H30.201L30.853 53.8558H30.8671L32.0719 53.6432C32.1782 53.629 32.3058 53.5971 32.4121 53.5652L32.6247 53.5192L32.9506 53.4589L33.2341 53.381C34.7826 53.0089 36.2814 52.4951 37.7271 51.8928C35.2645 55.259 31.962 57.9661 28.1033 59.7484C29.8856 59.6244 31.6679 59.3303 33.3829 58.8342C39.6264 56.9917 44.8812 52.7928 48.0277 47.134C47.3897 50.7217 45.9668 54.1242 43.8607 57.098C45.3631 56.1058 46.7415 54.9613 47.9994 53.6609C51.4675 50.0396 53.744 45.4435 54.5227 40.4902C55.0542 42.9351 55.2031 45.4651 54.9727 47.9596C66.1592 32.3546 55.9011 16.1755 51.6065 11.9164C51.5924 11.8809 51.5711 11.8703 51.5711 11.8384C51.5357 12.0227 51.525 12.2105 51.5109 12.3947C51.4648 12.7491 51.4187 13.0928 51.3549 13.4329C51.2912 13.7731 51.1849 14.1133 51.0927 14.4605C51.0006 14.8078 50.8589 15.1267 50.7207 15.4527C50.5825 15.7787 50.4266 16.0905 50.26 16.3987C50.0893 16.7018 49.9036 16.9963 49.7037 17.281C49.5018 17.5752 49.2856 17.8551 49.0659 18.1173C48.8346 18.387 48.5911 18.6459 48.336 18.8933C48.1801 19.035 48.0419 19.1555 47.886 19.2831L47.5316 19.5913C47.2549 19.8108 46.965 20.0132 46.6635 20.1973C46.3676 20.3881 46.0625 20.5643 45.7493 20.7252C45.4233 20.8811 45.0973 21.0193 44.7714 21.1575C44.4414 21.2824 44.1055 21.3912 43.765 21.4835C43.4249 21.5756 43.067 21.6536 42.7268 21.7174C42.3867 21.7811 42.0181 21.8095 41.6744 21.8414C41.4264 21.8555 41.1784 21.8768 40.9658 21.8768C40.6114 21.8768 40.2571 21.8414 39.9134 21.813C39.5697 21.7847 39.2047 21.7351 38.8575 21.6571C38.5058 21.5935 38.1589 21.5059 37.8192 21.3949H37.8051C38.1452 21.3595 38.4854 21.3311 38.8327 21.2709C39.1799 21.2107 39.5307 21.1292 39.8709 21.037C40.211 20.9449 40.5512 20.8351 40.8772 20.711C41.2032 20.587 41.5433 20.4276 41.8552 20.2787C42.1727 20.1239 42.4826 19.9536 42.7835 19.7685C43.0776 19.5665 43.3717 19.3646 43.6516 19.1484C43.9293 18.9324 44.1932 18.6992 44.4418 18.4504C44.704 18.2165 44.9379 17.9543 45.1718 17.6921C45.4056 17.4299 45.6218 17.1358 45.8237 16.8558C45.8592 16.8098 45.8875 16.7495 45.9159 16.6999L46.3659 15.9913C46.536 15.683 46.6919 15.3712 46.8265 15.0452C46.9612 14.7192 47.0887 14.3932 47.1986 14.053C47.3084 13.7129 47.3828 13.3869 47.4608 13.0467C47.5387 12.7065 47.5848 12.3487 47.6167 12.0085C47.6486 11.6683 47.6769 11.2998 47.6769 10.9561C47.6769 10.7081 47.6627 10.46 47.6415 10.2474C47.6061 9.89311 47.5635 9.5494 47.5175 9.20924C47.4558 8.8597 47.3778 8.51325 47.2836 8.17103C47.1773 7.84504 47.071 7.50487 46.9434 7.17888C46.8159 6.85289 46.66 6.5269 46.5111 6.22217C46.3623 5.91744 46.171 5.60208 45.9796 5.30798C45.7883 5.01388 45.5757 4.73395 45.3596 4.45757L44.6509 3.6674C44.52 3.53479 44.3853 3.40599 44.2469 3.28117C43.5526 2.74153 42.8337 2.23428 42.0926 1.76106C41.9863 1.70082 41.8906 1.65476 41.7843 1.60515C41.274 1.27916 40.7921 1.10908 40.3138 0.953168L40.2606 0.900018Z" fill="#F6F6F6"/>
</g>
<defs>
<clipPath id="clip0_9_203">
<rect width="60" height="60" fill="white"/>
</clipPath>
</defs>
</svg>
