<svg width="60" height="60" viewBox="0 0 60 60" fill="none" xmlns="http://www.w3.org/2000/svg">
<g clip-path="url(#clip0_9_174)">
<g clip-path="url(#clip1_9_174)">
<path fill-rule="evenodd" clip-rule="evenodd" d="M58.268 35.6931C57.9331 34.6786 57.0555 33.9719 55.9205 33.8023C55.3854 33.7224 54.7725 33.7565 54.0474 33.906C52.7834 34.1668 51.8455 34.266 51.1612 34.2854C53.7444 29.9237 55.845 24.9497 57.0543 20.2676C59.0097 12.697 57.9648 9.24809 56.7438 7.68795C53.5123 3.5589 48.7975 1.34057 43.1094 1.27257C40.0753 1.23554 37.4114 1.83464 36.022 2.26535C34.7282 2.03722 33.3369 1.90973 31.8772 1.88612C29.1413 1.84251 26.7238 2.4389 24.6581 3.66471C23.5142 3.27813 21.679 2.73296 19.5593 2.38496C14.574 1.56651 10.5562 2.20431 7.61735 4.28045C4.05862 6.79427 2.40881 11.1618 2.71397 17.2618C2.81075 19.1986 3.89423 25.0911 5.60005 30.6797C6.58044 33.8917 7.62586 36.5592 8.70729 38.6085C10.2408 41.5144 11.8818 43.2258 13.724 43.8402C14.7566 44.1844 16.6326 44.4251 18.6059 42.782C18.856 43.0848 19.1895 43.3858 19.6325 43.6653C20.1948 44.02 20.8826 44.3098 21.5693 44.4815C24.0445 45.1004 26.363 44.9455 28.3409 44.0783C28.3531 44.43 28.3625 44.7662 28.3705 45.0564C28.3836 45.5272 28.3965 45.9888 28.4138 46.4204C28.531 49.3394 28.7296 51.6089 29.318 53.1968C29.3502 53.2843 29.3937 53.4173 29.4396 53.5583C29.7331 54.4572 30.224 55.9617 31.4727 57.1402C32.766 58.3607 34.3301 58.7351 35.7626 58.735C36.4811 58.735 37.1666 58.6408 37.7678 58.5119C39.9112 58.0527 42.3452 57.3528 44.106 54.8457C45.7707 52.4755 46.58 48.9057 46.7264 43.2806C46.7454 43.1217 46.7629 42.9698 46.7798 42.825C46.7912 42.7273 46.8028 42.6275 46.8145 42.5278L47.2068 42.5623L47.3078 42.5691C49.4908 42.6686 52.16 42.2057 53.7992 41.4442C55.0946 40.8431 59.2453 38.6518 58.268 35.6931Z" fill="black"/>
<path fill-rule="evenodd" clip-rule="evenodd" d="M54.5355 36.2686C48.0448 37.6074 47.5987 35.4099 47.5987 35.4099C54.4517 25.2411 57.3165 12.3333 54.8442 9.17415C48.0997 0.556694 36.4245 4.6322 36.2297 4.738L36.167 4.74923C34.8847 4.48303 33.4496 4.32445 31.8367 4.29813C28.8997 4.25 26.672 5.06807 24.9815 6.35001C24.9815 6.35001 4.15421 -2.23003 5.12286 17.141C5.32892 21.2621 11.0295 48.3227 17.8288 40.1491C20.314 37.1603 22.7152 34.6332 22.7152 34.6332C23.9078 35.4255 25.3356 35.8296 26.8324 35.6845L26.9486 35.5857C26.9125 35.9568 26.929 36.3198 26.9952 36.7495C25.2436 38.7065 25.7583 39.0501 22.2567 39.7709C18.7136 40.5011 20.7951 41.8011 22.154 42.1409C23.8015 42.5529 27.613 43.1365 30.1884 39.5313L30.0857 39.9427C30.772 40.4924 31.2539 43.5183 31.1732 46.2613C31.0924 49.0044 31.0385 50.8876 31.5792 52.3586C32.12 53.8296 32.659 57.1393 37.2621 56.1529C41.1084 55.3287 43.1016 53.1927 43.3789 49.6297C43.5757 47.0966 44.021 47.4711 44.0491 45.2064L44.4063 44.1343C44.8181 40.7006 44.4717 39.5929 46.8414 40.1081L47.4172 40.1587C49.1614 40.238 51.4441 39.8782 52.7838 39.2554C55.6688 37.9166 57.3797 35.6812 54.5352 36.2686H54.5355Z" fill="#9F9F9F"/>
<path fill-rule="evenodd" clip-rule="evenodd" d="M26.2006 18.984C25.6159 18.9026 25.0861 18.9779 24.8181 19.1808C24.6672 19.295 24.6206 19.4272 24.6081 19.5183C24.5744 19.7595 24.7435 20.0261 24.8472 20.1636C25.1409 20.5529 25.5701 20.8205 25.9948 20.8795C26.0564 20.888 26.1176 20.8921 26.1785 20.8921C26.8868 20.8921 27.5307 20.3406 27.5875 19.9336C27.6585 19.4237 26.9183 19.0839 26.2006 18.984Z" fill="white"/>
<path fill-rule="evenodd" clip-rule="evenodd" d="M45.5774 19.0001H45.5773C45.5215 18.6005 44.8103 18.4866 44.1355 18.5804C43.4617 18.6743 42.8081 18.9785 42.8627 19.379C42.9066 19.6905 43.4688 20.2222 44.1346 20.2221C44.1907 20.2221 44.2475 20.2183 44.3046 20.2103C44.749 20.1488 45.0751 19.8666 45.2299 19.7039C45.4659 19.4561 45.6023 19.1797 45.5774 19.0001Z" fill="white"/>
<path fill-rule="evenodd" clip-rule="evenodd" d="M56.6954 36.1165C56.4479 35.3681 55.6514 35.1272 54.3279 35.4006C50.3983 36.2116 48.9911 35.6497 48.5289 35.3095C51.5833 30.6563 54.096 25.0319 55.4515 19.784C56.0937 17.2982 56.4484 14.9897 56.4773 13.1081C56.5093 11.0425 56.1577 9.52499 55.4321 8.59789C52.5071 4.86032 48.2143 2.85554 43.0177 2.80044C39.4453 2.76032 36.427 3.67464 35.8418 3.93168C34.6096 3.62522 33.2662 3.43709 31.8039 3.41309C29.1219 3.36974 26.8039 4.0118 24.8845 5.32046C24.0508 5.01026 21.8962 4.27064 19.2615 3.84626C14.7061 3.1127 11.0864 3.66845 8.50315 5.49852C5.42081 7.68227 3.99784 11.5858 4.27358 17.1004C4.36636 18.9559 5.42339 24.6634 7.09179 30.1295C9.2878 37.3237 11.6748 41.3965 14.1865 42.2342C14.4805 42.3322 14.8196 42.4009 15.1932 42.4009C16.1095 42.4009 17.2327 41.9878 18.4015 40.5828C20.3428 38.2473 22.1553 36.2903 22.8235 35.5792C23.8108 36.1092 24.8953 36.4051 26.0049 36.4348C26.0068 36.4638 26.0098 36.4929 26.0124 36.5218C25.7898 36.7858 25.6072 37.0171 25.4516 37.2147C24.683 38.1904 24.523 38.3935 22.0486 38.9031C21.3449 39.0482 19.4753 39.4335 19.4481 40.7438C19.4183 42.1755 21.6577 42.7767 21.9129 42.8405C22.802 43.0631 23.6586 43.1729 24.4755 43.1729C26.4623 43.1727 28.2106 42.5198 29.6079 41.2565C29.5648 46.3604 29.7777 51.3897 30.3905 52.9221C30.8923 54.1764 32.1185 57.2422 35.9917 57.242C36.5598 57.242 37.1855 57.1759 37.8736 57.0284C41.9157 56.1617 43.6709 54.3753 44.35 50.4367C44.7134 48.3317 45.337 43.3051 45.6301 40.609C46.2491 40.802 47.046 40.8904 47.9074 40.8903C49.7041 40.8903 51.7771 40.5086 53.0773 39.9051C54.5377 39.2269 57.1733 37.5624 56.6954 36.1165ZM47.0694 17.897C47.0559 18.693 46.9464 19.4156 46.8303 20.1699C46.7053 20.9812 46.5761 21.8199 46.5435 22.8381C46.5114 23.8289 46.6352 24.8591 46.7549 25.8553C46.9967 27.8674 47.2448 29.939 46.2842 31.9832C46.1349 31.718 45.9908 31.4287 45.8586 31.1083C45.7393 30.8189 45.4801 30.354 45.1212 29.7105C43.7246 27.206 40.4541 21.3409 42.1283 18.9476C42.6269 18.2351 43.8924 17.5028 47.0694 17.897ZM43.2186 4.41232C47.8746 4.51516 51.5576 6.25698 54.1654 9.58912C56.1654 12.145 53.9631 23.7747 47.5874 33.8077C47.5245 33.7277 47.4603 33.6469 47.394 33.5641C47.3675 33.5309 47.3406 33.4972 47.3134 33.4632C48.9608 30.7422 48.6386 28.0502 48.3519 25.6634C48.2341 24.6839 48.1229 23.7587 48.1512 22.8898C48.1805 21.9685 48.3023 21.1787 48.4199 20.4148C48.5648 19.4734 48.7121 18.4995 48.6714 17.3512C48.7017 17.2308 48.714 17.0885 48.6981 16.9196C48.5944 15.8184 47.3374 12.5233 44.775 9.54047C43.3736 7.90924 41.3296 6.08356 38.5389 4.8522C39.7393 4.60342 41.3808 4.37142 43.2186 4.41232ZM17.1647 39.5544C15.8771 41.1026 14.9878 40.8059 14.6954 40.7085C12.79 40.0729 10.5793 36.0459 8.63008 29.6599C6.94349 24.1343 5.95781 18.5781 5.87988 17.02C5.63355 12.0925 6.82801 8.65828 9.43021 6.81285C13.6651 3.80961 20.6277 5.60717 23.4254 6.51891C23.3851 6.55853 23.3433 6.59569 23.3034 6.63595C18.7126 11.2725 18.8215 19.1941 18.8327 19.6782C18.8323 19.865 18.8479 20.1296 18.8695 20.4934C18.9485 21.8257 19.0954 24.3054 18.7028 27.1137C18.3377 29.7233 19.1421 32.2775 20.9094 34.1214C21.0923 34.3122 21.2833 34.4914 21.4806 34.6601C20.6939 35.5025 18.9843 37.3654 17.1647 39.5544ZM22.0707 33.0084C20.6463 31.5224 19.9994 29.4551 20.2957 27.3364C20.7104 24.3698 20.5572 21.7862 20.475 20.3982C20.4635 20.204 20.4534 20.0338 20.4473 19.8995C21.118 19.3049 24.226 17.6395 26.4424 18.1474C27.454 18.3791 28.0702 19.0677 28.3264 20.2525C29.6526 26.3858 28.502 28.9422 27.5775 30.9964C27.3869 31.4197 27.2069 31.8197 27.0531 32.2336L26.934 32.5535C26.6323 33.3624 26.3517 34.1144 26.1778 34.8286C24.6637 34.8239 23.1907 34.1772 22.0707 33.0084ZM22.303 41.2801C21.861 41.1696 21.4633 40.9778 21.23 40.8187C21.4248 40.7269 21.7717 40.6023 22.3731 40.4784C25.284 39.8791 25.7334 39.4562 26.7151 38.2098C26.9402 37.9241 27.1953 37.6001 27.5486 37.2055C27.5487 37.2052 27.5489 37.2051 27.549 37.205C28.0753 36.6158 28.316 36.7157 28.7525 36.8967C29.1063 37.0432 29.4508 37.4865 29.5906 37.9745C29.6566 38.205 29.7309 38.6425 29.488 38.9828C27.4373 41.854 24.4491 41.8171 22.303 41.2801ZM37.5364 55.4558C33.9755 56.2187 32.7147 54.4018 31.8839 52.3248C31.3476 50.9838 31.0841 44.9369 31.2711 38.2593C31.2735 38.1704 31.2609 38.0846 31.2364 38.004C31.2151 37.8482 31.1823 37.6907 31.1369 37.5321C30.8587 36.5605 30.1811 35.7477 29.3682 35.4108C29.0453 35.277 28.4524 35.0314 27.74 35.2136C27.892 34.5877 28.1555 33.881 28.441 33.1155L28.5609 32.7935C28.6958 32.4305 28.865 32.0545 29.0441 31.6566C30.0116 29.5071 31.3366 26.5633 29.8986 19.9125C29.3598 17.4215 27.5611 16.2051 24.8343 16.4876C23.1994 16.6568 21.7039 17.3164 20.958 17.6946C20.7976 17.7759 20.6509 17.8543 20.5139 17.9308C20.722 15.4209 21.5087 10.7304 24.4512 7.76279C26.3037 5.89439 28.7711 4.97168 31.7773 5.02136C37.7005 5.11839 41.4989 8.15815 43.6425 10.6912C45.4896 12.874 46.4899 15.0728 46.8891 16.2586C43.8871 15.9534 41.8454 16.5461 40.8103 18.0257C38.5587 21.2443 42.0422 27.4915 43.7164 30.4939C44.0234 31.0442 44.2884 31.5197 44.3718 31.7217C44.9169 33.043 45.6228 33.9251 46.1381 34.5691C46.296 34.7664 46.4493 34.9577 46.5659 35.1248C45.6567 35.387 44.0235 35.9926 44.1723 39.0198C44.0523 40.5389 43.1986 47.6507 42.7651 50.1634C42.1927 53.4829 40.9711 54.7194 37.5364 55.4558ZM52.4 38.4463C51.4703 38.8779 49.9144 39.2016 48.4363 39.2711C46.8038 39.3476 45.9728 39.0882 45.7773 38.9287C45.6855 37.0423 46.3878 36.8451 47.1309 36.6365C47.2477 36.6036 47.3616 36.5717 47.4715 36.5332C47.5399 36.5888 47.6148 36.6441 47.6967 36.6981C49.0088 37.5642 51.3492 37.6576 54.6531 36.9757C54.6653 36.9731 54.6774 36.9708 54.6894 36.9683C54.2438 37.385 53.4812 37.9442 52.4 38.4463Z" fill="white"/>
</g>
</g>
<defs>
<clipPath id="clip0_9_174">
<rect width="55.8887" height="57.6172" fill="white" transform="translate(2.61328 1.19141)"/>
</clipPath>
<clipPath id="clip1_9_174">
<rect width="55.8712" height="57.6172" fill="white" transform="translate(2.61328 1.19141)"/>
</clipPath>
</defs>
</svg>
