<svg width="60" height="60" viewBox="0 0 60 60" fill="none" xmlns="http://www.w3.org/2000/svg">
<g clip-path="url(#clip0_9_122)">
<path d="M4.6875 0H55.3125C57.9013 0 60 2.09867 60 4.6875V55.3125C60 57.9013 57.9013 60 55.3125 60H4.6875C2.09867 60 0 57.9013 0 55.3125V4.6875C0 2.09867 2.09867 0 4.6875 0Z" fill="white"/>
<path d="M35.2777 46.9863V53.4598C36.3305 53.9993 37.5757 54.4038 39.0131 54.6736C40.4505 54.9434 41.9655 55.0781 43.5584 55.0781C45.1104 55.0781 46.5851 54.9298 47.982 54.633C49.3788 54.3363 50.6039 53.8474 51.6565 53.1666C52.7093 52.4855 53.5427 51.5953 54.157 50.4961C54.7711 49.3971 55.0781 48.0384 55.0781 46.4201C55.0781 45.2468 54.9026 44.2184 54.5517 43.335C54.2009 42.4516 53.6946 41.666 53.0332 40.9784C52.372 40.2905 51.5789 39.6736 50.6545 39.1273C49.7299 38.5812 48.6872 38.0653 47.5263 37.5799C46.676 37.2291 45.9136 36.8887 45.2386 36.5583C44.5638 36.2278 43.9901 35.8908 43.5178 35.5467C43.0453 35.2029 42.6809 34.8387 42.4245 34.4543C42.168 34.0699 42.0398 33.6352 42.0398 33.1495C42.0398 32.7045 42.1545 32.3034 42.3839 31.946C42.6134 31.5886 42.9375 31.2818 43.3559 31.0256C43.7742 30.7692 44.287 30.5705 44.8945 30.4287C45.5018 30.2871 46.1768 30.2163 46.9191 30.2163C47.4591 30.2163 48.0293 30.2569 48.6298 30.3377C49.2305 30.4186 49.8345 30.5433 50.442 30.712C51.0492 30.8805 51.6396 31.0929 52.2134 31.3493C52.7869 31.6055 53.3168 31.9022 53.8027 32.2392V26.1907C52.8173 25.8131 51.7409 25.5333 50.5734 25.3512C49.406 25.1691 48.0663 25.0781 46.5546 25.0781C45.0159 25.0781 43.5584 25.2434 42.1816 25.5738C40.8049 25.9041 39.5934 26.4199 38.5474 27.1212C37.5014 27.8227 36.6748 28.7161 36.0673 29.8017C35.46 30.8873 35.1562 32.1853 35.1562 33.6959C35.1562 35.6243 35.7129 37.2696 36.8266 38.6318C37.9402 39.9937 39.6305 41.1469 41.898 42.0909C42.7889 42.4552 43.6191 42.8123 44.3883 43.1632C45.1577 43.5138 45.8224 43.8778 46.3826 44.2554C46.9427 44.633 47.3848 45.0443 47.7087 45.4894C48.0326 45.9345 48.1945 46.4402 48.1945 47.0067C48.1945 47.4246 48.0933 47.8125 47.8908 48.1699C47.6885 48.5271 47.3813 48.8374 46.9697 49.1004C46.5581 49.3634 46.0451 49.5689 45.431 49.7173C44.817 49.8656 44.0981 49.9399 43.2748 49.9399C41.8711 49.9399 40.481 49.6938 39.1043 49.2014C37.7273 48.7092 36.4519 47.9709 35.2777 46.9863ZM24.488 30.877H32.8125V25.5469H9.60938V30.877H17.8933V54.6094H24.488V30.877Z" fill="#5A5A5A"/>
</g>
<defs>
<clipPath id="clip0_9_122">
<rect width="60" height="60" fill="white"/>
</clipPath>
</defs>
</svg>
